<svg width="167" height="139" viewBox="0 0 167 139" fill="none" xmlns="http://www.w3.org/2000/svg">
<path d="M11.0366 3.63802L66.0001 57.362" stroke="#DA4141" stroke-width="8"/>
<path d="M65.3141 5.38977L11.0365 56.773" stroke="#DA4141" stroke-width="8"/>
<circle cx="127.5" cy="33.5" r="24.5" stroke="#1480BD" stroke-width="8"/>
<path d="M20.5455 119H4.04545V72.4545H20.6818C25.3636 72.4545 29.3939 73.3864 32.7727 75.25C36.1515 77.0985 38.75 79.7576 40.5682 83.2273C42.4015 86.697 43.3182 90.8485 43.3182 95.6818C43.3182 100.53 42.4015 104.697 40.5682 108.182C38.75 111.667 36.1364 114.341 32.7273 116.205C29.3333 118.068 25.2727 119 20.5455 119ZM13.8864 110.568H20.1364C23.0455 110.568 25.4924 110.053 27.4773 109.023C29.4773 107.977 30.9773 106.364 31.9773 104.182C32.9924 101.985 33.5 99.1515 33.5 95.6818C33.5 92.2424 32.9924 89.4318 31.9773 87.25C30.9773 85.0682 29.4848 83.4621 27.5 82.4318C25.5152 81.4015 23.0682 80.8864 20.1591 80.8864H13.8864V110.568ZM50.4261 119V84.0909H59.8125V90.1818H60.1761C60.8125 88.0152 61.8807 86.3788 63.3807 85.2727C64.8807 84.1515 66.608 83.5909 68.5625 83.5909C69.0473 83.5909 69.5701 83.6212 70.1307 83.6818C70.6913 83.7424 71.1837 83.8258 71.608 83.9318V92.5227C71.1534 92.3864 70.5246 92.2652 69.7216 92.1591C68.9186 92.053 68.1837 92 67.517 92C66.0928 92 64.8201 92.3106 63.6989 92.9318C62.5928 93.5379 61.714 94.3864 61.0625 95.4773C60.4261 96.5682 60.108 97.8258 60.108 99.25V119H50.4261ZM85.5682 119.659C83.3409 119.659 81.3561 119.273 79.6136 118.5C77.8712 117.712 76.4924 116.553 75.4773 115.023C74.4773 113.477 73.9773 111.553 73.9773 109.25C73.9773 107.311 74.3333 105.682 75.0455 104.364C75.7576 103.045 76.7273 101.985 77.9545 101.182C79.1818 100.379 80.5758 99.7727 82.1364 99.3636C83.7121 98.9545 85.3636 98.6667 87.0909 98.5C89.1212 98.2879 90.7576 98.0909 92 97.9091C93.2424 97.7121 94.1439 97.4242 94.7045 97.0455C95.2652 96.6667 95.5455 96.1061 95.5455 95.3636V95.2273C95.5455 93.7879 95.0909 92.6742 94.1818 91.8864C93.2879 91.0985 92.0152 90.7045 90.3636 90.7045C88.6212 90.7045 87.2348 91.0909 86.2045 91.8636C85.1742 92.6212 84.4924 93.5758 84.1591 94.7273L75.2045 94C75.6591 91.8788 76.553 90.0455 77.8864 88.5C79.2197 86.9394 80.9394 85.7424 83.0455 84.9091C85.1667 84.0606 87.6212 83.6364 90.4091 83.6364C92.3485 83.6364 94.2045 83.8636 95.9773 84.3182C97.7652 84.7727 99.3485 85.4773 100.727 86.4318C102.121 87.3864 103.22 88.6136 104.023 90.1136C104.826 91.5985 105.227 93.3788 105.227 95.4545V119H96.0455V114.159H95.7727C95.2121 115.25 94.4621 116.212 93.5227 117.045C92.5833 117.864 91.4545 118.508 90.1364 118.977C88.8182 119.432 87.2955 119.659 85.5682 119.659ZM88.3409 112.977C89.7652 112.977 91.0227 112.697 92.1136 112.136C93.2045 111.561 94.0606 110.788 94.6818 109.818C95.303 108.848 95.6136 107.75 95.6136 106.523V102.818C95.3106 103.015 94.8939 103.197 94.3636 103.364C93.8485 103.515 93.2652 103.659 92.6136 103.795C91.9621 103.917 91.3106 104.03 90.6591 104.136C90.0076 104.227 89.4167 104.311 88.8864 104.386C87.75 104.553 86.7576 104.818 85.9091 105.182C85.0606 105.545 84.4015 106.038 83.9318 106.659C83.4621 107.265 83.2273 108.023 83.2273 108.932C83.2273 110.25 83.7045 111.258 84.6591 111.955C85.6288 112.636 86.8561 112.977 88.3409 112.977ZM119.625 119L110.125 84.0909H119.92L125.33 107.545H125.648L131.284 84.0909H140.898L146.625 107.409H146.92L152.239 84.0909H162.011L152.534 119H142.284L136.284 97.0455H135.852L129.852 119H119.625Z" fill="white"/>
</svg>
