<svg width="289" height="82" viewBox="0 0 289 82" fill="none" xmlns="http://www.w3.org/2000/svg">
<circle cx="27.5" cy="41" r="23.5" stroke="#1480BD" stroke-width="8"/>
<path d="M83.5227 62L70.2045 15.4545H80.9545L88.6591 47.7955H89.0455L97.5455 15.4545H106.75L115.227 47.8636H115.636L123.341 15.4545H134.091L120.773 62H111.182L102.318 31.5682H101.955L93.1136 62H83.5227ZM139.176 62V27.0909H148.858V62H139.176ZM144.04 22.5909C142.6 22.5909 141.366 22.1136 140.335 21.1591C139.32 20.1894 138.812 19.0303 138.812 17.6818C138.812 16.3485 139.32 15.2045 140.335 14.25C141.366 13.2803 142.6 12.7955 144.04 12.7955C145.479 12.7955 146.706 13.2803 147.722 14.25C148.752 15.2045 149.267 16.3485 149.267 17.6818C149.267 19.0303 148.752 20.1894 147.722 21.1591C146.706 22.1136 145.479 22.5909 144.04 22.5909ZM166.295 41.8182V62H156.614V27.0909H165.841V33.25H166.25C167.023 31.2197 168.318 29.6136 170.136 28.4318C171.955 27.2348 174.159 26.6364 176.75 26.6364C179.174 26.6364 181.288 27.1667 183.091 28.2273C184.894 29.2879 186.295 30.803 187.295 32.7727C188.295 34.7273 188.795 37.0606 188.795 39.7727V62H179.114V41.5C179.129 39.3636 178.583 37.697 177.477 36.5C176.371 35.2879 174.848 34.6818 172.909 34.6818C171.606 34.6818 170.455 34.9621 169.455 35.5227C168.47 36.0833 167.697 36.9015 167.136 37.9773C166.591 39.0379 166.311 40.3182 166.295 41.8182ZM225.472 37.0455L216.608 37.5909C216.456 36.8333 216.131 36.1515 215.631 35.5455C215.131 34.9242 214.472 34.4318 213.653 34.0682C212.85 33.6894 211.888 33.5 210.767 33.5C209.267 33.5 208.002 33.8182 206.972 34.4545C205.941 35.0758 205.426 35.9091 205.426 36.9545C205.426 37.7879 205.759 38.4924 206.426 39.0682C207.093 39.6439 208.237 40.1061 209.858 40.4545L216.176 41.7273C219.57 42.4242 222.1 43.5455 223.767 45.0909C225.434 46.6364 226.267 48.6667 226.267 51.1818C226.267 53.4697 225.593 55.4773 224.244 57.2045C222.911 58.9318 221.078 60.2803 218.744 61.25C216.426 62.2045 213.752 62.6818 210.722 62.6818C206.1 62.6818 202.419 61.7197 199.676 59.7955C196.949 57.8561 195.35 55.2197 194.881 51.8864L204.403 51.3864C204.691 52.7955 205.388 53.8712 206.494 54.6136C207.6 55.3409 209.017 55.7045 210.744 55.7045C212.441 55.7045 213.805 55.3788 214.835 54.7273C215.881 54.0606 216.411 53.2045 216.426 52.1591C216.411 51.2803 216.04 50.5606 215.312 50C214.585 49.4242 213.464 48.9848 211.949 48.6818L205.903 47.4773C202.494 46.7955 199.956 45.6136 198.29 43.9318C196.638 42.25 195.812 40.1061 195.812 37.5C195.812 35.2576 196.419 33.3258 197.631 31.7045C198.858 30.0833 200.578 28.8333 202.79 27.9545C205.017 27.0758 207.623 26.6364 210.608 26.6364C215.017 26.6364 218.487 27.5682 221.017 29.4318C223.563 31.2955 225.047 33.8333 225.472 37.0455ZM258.744 15.4545L257.858 48.0455H249.54L248.631 15.4545H258.744ZM253.699 62.5909C252.199 62.5909 250.911 62.0606 249.835 61C248.759 59.9242 248.229 58.6364 248.244 57.1364C248.229 55.6515 248.759 54.3788 249.835 53.3182C250.911 52.2576 252.199 51.7273 253.699 51.7273C255.138 51.7273 256.403 52.2576 257.494 53.3182C258.585 54.3788 259.138 55.6515 259.153 57.1364C259.138 58.1364 258.873 59.053 258.358 59.8864C257.858 60.7045 257.199 61.3636 256.381 61.8636C255.562 62.3485 254.669 62.5909 253.699 62.5909Z" fill="white"/>
</svg>
