<svg width="48" height="48" viewBox="0 0 48 48" fill="none" xmlns="http://www.w3.org/2000/svg">
<g clip-path="url(#clip0_12_2)">
<path d="M48 4V18C48 18.5417 47.8021 19.0104 47.4062 19.4062C47.0104 19.8021 46.5417 20 46 20H32C31.125 20 30.5104 19.5833 30.1562 18.75C29.8021 17.9375 29.9479 17.2188 30.5938 16.5938L34.9062 12.2812C31.8229 9.42708 28.1875 8 24 8C21.8333 8 19.7656 8.42188 17.7969 9.26562C15.8281 10.1094 14.125 11.25 12.6875 12.6875C11.25 14.125 10.1094 15.8281 9.26562 17.7969C8.42188 19.7656 8 21.8333 8 24C8 26.1667 8.42188 28.2344 9.26562 30.2031C10.1094 32.1719 11.25 33.875 12.6875 35.3125C14.125 36.75 15.8281 37.8906 17.7969 38.7344C19.7656 39.5781 21.8333 40 24 40C26.4792 40 28.8229 39.4583 31.0312 38.375C33.2396 37.2917 35.1042 35.7604 36.625 33.7812C36.7708 33.5729 37.0104 33.4479 37.3438 33.4062C37.6562 33.4062 37.9167 33.5 38.125 33.6875L42.4062 38C42.5938 38.1667 42.6927 38.3802 42.7031 38.6406C42.7135 38.901 42.6354 39.1354 42.4688 39.3438C40.1979 42.0938 37.4479 44.224 34.2188 45.7344C30.9896 47.2448 27.5833 48 24 48C20.75 48 17.6458 47.3646 14.6875 46.0938C11.7292 44.8229 9.17708 43.1146 7.03125 40.9688C4.88542 38.8229 3.17708 36.2708 1.90625 33.3125C0.635417 30.3542 0 27.25 0 24C0 20.75 0.635417 17.6458 1.90625 14.6875C3.17708 11.7292 4.88542 9.17708 7.03125 7.03125C9.17708 4.88542 11.7292 3.17708 14.6875 1.90625C17.6458 0.635417 20.75 0 24 0C27.0625 0 30.026 0.578125 32.8906 1.73438C35.7552 2.89062 38.3021 4.52083 40.5312 6.625L44.5938 2.59375C45.1979 1.94792 45.9271 1.80208 46.7812 2.15625C47.5938 2.51042 48 3.125 48 4Z" fill="#1A1A1A"/>
</g>
<defs>
<clipPath id="clip0_12_2">
<rect width="48" height="48" fill="white"/>
</clipPath>
</defs>
</svg>
