<svg width="298" height="82" viewBox="0 0 298 82" fill="none" xmlns="http://www.w3.org/2000/svg">
<path d="M3.03657 14.138L58.0001 67.862" stroke="#DA4141" stroke-width="8"/>
<path d="M57.3141 15.8898L3.03654 67.273" stroke="#DA4141" stroke-width="8"/>
<path d="M92.5227 62L79.2045 15.4545H89.9545L97.6591 47.7955H98.0455L106.545 15.4545H115.75L124.227 47.8636H124.636L132.341 15.4545H143.091L129.773 62H120.182L111.318 31.5682H110.955L102.114 62H92.5227ZM148.176 62V27.0909H157.858V62H148.176ZM153.04 22.5909C151.6 22.5909 150.366 22.1136 149.335 21.1591C148.32 20.1894 147.812 19.0303 147.812 17.6818C147.812 16.3485 148.32 15.2045 149.335 14.25C150.366 13.2803 151.6 12.7955 153.04 12.7955C154.479 12.7955 155.706 13.2803 156.722 14.25C157.752 15.2045 158.267 16.3485 158.267 17.6818C158.267 19.0303 157.752 20.1894 156.722 21.1591C155.706 22.1136 154.479 22.5909 153.04 22.5909ZM175.295 41.8182V62H165.614V27.0909H174.841V33.25H175.25C176.023 31.2197 177.318 29.6136 179.136 28.4318C180.955 27.2348 183.159 26.6364 185.75 26.6364C188.174 26.6364 190.288 27.1667 192.091 28.2273C193.894 29.2879 195.295 30.803 196.295 32.7727C197.295 34.7273 197.795 37.0606 197.795 39.7727V62H188.114V41.5C188.129 39.3636 187.583 37.697 186.477 36.5C185.371 35.2879 183.848 34.6818 181.909 34.6818C180.606 34.6818 179.455 34.9621 178.455 35.5227C177.47 36.0833 176.697 36.9015 176.136 37.9773C175.591 39.0379 175.311 40.3182 175.295 41.8182ZM234.472 37.0455L225.608 37.5909C225.456 36.8333 225.131 36.1515 224.631 35.5455C224.131 34.9242 223.472 34.4318 222.653 34.0682C221.85 33.6894 220.888 33.5 219.767 33.5C218.267 33.5 217.002 33.8182 215.972 34.4545C214.941 35.0758 214.426 35.9091 214.426 36.9545C214.426 37.7879 214.759 38.4924 215.426 39.0682C216.093 39.6439 217.237 40.1061 218.858 40.4545L225.176 41.7273C228.57 42.4242 231.1 43.5455 232.767 45.0909C234.434 46.6364 235.267 48.6667 235.267 51.1818C235.267 53.4697 234.593 55.4773 233.244 57.2045C231.911 58.9318 230.078 60.2803 227.744 61.25C225.426 62.2045 222.752 62.6818 219.722 62.6818C215.1 62.6818 211.419 61.7197 208.676 59.7955C205.949 57.8561 204.35 55.2197 203.881 51.8864L213.403 51.3864C213.691 52.7955 214.388 53.8712 215.494 54.6136C216.6 55.3409 218.017 55.7045 219.744 55.7045C221.441 55.7045 222.805 55.3788 223.835 54.7273C224.881 54.0606 225.411 53.2045 225.426 52.1591C225.411 51.2803 225.04 50.5606 224.312 50C223.585 49.4242 222.464 48.9848 220.949 48.6818L214.903 47.4773C211.494 46.7955 208.956 45.6136 207.29 43.9318C205.638 42.25 204.812 40.1061 204.812 37.5C204.812 35.2576 205.419 33.3258 206.631 31.7045C207.858 30.0833 209.578 28.8333 211.79 27.9545C214.017 27.0758 216.623 26.6364 219.608 26.6364C224.017 26.6364 227.487 27.5682 230.017 29.4318C232.563 31.2955 234.047 33.8333 234.472 37.0455ZM267.744 15.4545L266.858 48.0455H258.54L257.631 15.4545H267.744ZM262.699 62.5909C261.199 62.5909 259.911 62.0606 258.835 61C257.759 59.9242 257.229 58.6364 257.244 57.1364C257.229 55.6515 257.759 54.3788 258.835 53.3182C259.911 52.2576 261.199 51.7273 262.699 51.7273C264.138 51.7273 265.403 52.2576 266.494 53.3182C267.585 54.3788 268.138 55.6515 268.153 57.1364C268.138 58.1364 267.873 59.053 267.358 59.8864C266.858 60.7045 266.199 61.3636 265.381 61.8636C264.562 62.3485 263.669 62.5909 262.699 62.5909Z" fill="white"/>
</svg>
